<?xml version="1.0" encoding="UTF-8" standalone="no"?>
<svg
   xmlns:dc="http://purl.org/dc/elements/1.1/"
   xmlns:cc="http://creativecommons.org/ns#"
   xmlns:rdf="http://www.w3.org/1999/02/22-rdf-syntax-ns#"
   xmlns:svg="http://www.w3.org/2000/svg"
   xmlns="http://www.w3.org/2000/svg"
   xmlns:sodipodi="http://sodipodi.sourceforge.net/DTD/sodipodi-0.dtd"
   xmlns:inkscape="http://www.inkscape.org/namespaces/inkscape"
   inkscape:version="1.0 (4035a4f, 2020-05-01)"
   sodipodi:docname="shell.svg"
   id="svg8"
   version="1.1"
   viewBox="0 0 80 35"
   height="35mm"
   width="80mm">
  <defs
     id="defs2" />
  <sodipodi:namedview
     fit-margin-bottom="0"
     fit-margin-right="0"
     fit-margin-left="0"
     fit-margin-top="0"
     inkscape:window-maximized="0"
     inkscape:window-y="23"
     inkscape:window-x="0"
     inkscape:window-height="997"
     inkscape:window-width="1920"
     showgrid="false"
     inkscape:document-rotation="0"
     inkscape:current-layer="layer1"
     inkscape:document-units="mm"
     inkscape:cy="541.26802"
     inkscape:cx="282.63362"
     inkscape:zoom="0.74029882"
     inkscape:pageshadow="2"
     inkscape:pageopacity="0.0"
     borderopacity="1.0"
     bordercolor="#666666"
     pagecolor="#ffffff"
     id="base" />
  <metadata
     id="metadata5">
    <rdf:RDF>
      <cc:Work
         rdf:about="">
        <dc:format>image/svg+xml</dc:format>
        <dc:type
           rdf:resource="http://purl.org/dc/dcmitype/StillImage" />
        <dc:title></dc:title>
      </cc:Work>
    </rdf:RDF>
  </metadata>
  <g
     transform="translate(-30.219855,-5.289504)"
     id="layer1"
     inkscape:groupmode="layer"
     inkscape:label="Layer 1">
    <g
       transform="translate(2.5737185,1.3675195)"
       id="g1406">
      <g
         id="g1395"
         transform="matrix(0.48001051,0,0,0.48001051,15.714007,2.7504865)">
        <path
           fill="#fefefe"
           id="Fill-2"
           d="M 84.941153,19.013715 63.720617,6.4171483 c -2.5328,-1.5035257 -5.654709,-1.5035257 -8.187509,0 L 34.312573,19.013715 c -2.532059,1.503526 -4.092643,4.281603 -4.092643,7.288654 v 25.193134 c 0,3.00631 1.560584,5.785869 4.093384,7.289395 l 21.220535,12.594344 c 1.2664,0.752133 2.678781,1.127088 4.093384,1.127088 1.413863,0 2.826243,-0.374955 4.092643,-1.127088 L 84.940412,58.784898 c 2.5328,-1.503526 4.094125,-4.283085 4.094125,-7.289395 V 26.302369 c 0,-3.007051 -1.561325,-5.785128 -4.093384,-7.288654 z"
           style="fill-rule:evenodd;stroke:none;stroke-width:0.741018" />
        <path
           fill="#3e474a"
           id="Fill-4"
           d="M 56.275534,70.0895 35.054999,57.495156 C 32.979407,56.262843 31.690035,53.964205 31.690035,51.495132 V 26.30274 c 0,-2.469073 1.289372,-4.767711 3.364223,-5.999283 L 56.275534,7.7068903 c 1.017418,-0.6039297 2.17637,-0.9233085 3.351625,-0.9233085 1.174514,0 2.333466,0.3193788 3.351625,0.9233085 L 84.19932,20.303457 c 1.748802,1.038167 2.928503,2.835876 3.260479,4.852187 C 86.755832,23.6536 85.168571,23.245299 83.31899,24.325703 L 63.243328,36.725901 c -2.50316,1.46351 -4.349036,3.105606 -4.350518,6.123773 v 24.737408 c -0.0015,1.807343 0.728421,2.978152 1.849581,3.317538 -0.368286,0.06373 -0.739536,0.108188 -1.115232,0.108188 -1.175255,0 -2.334207,-0.319378 -3.351625,-0.923308 M 84.941079,19.013345 63.720543,6.4175188 c -1.2664,-0.7521334 -2.680262,-1.1278295 -4.093384,-1.1278295 -1.413862,0 -2.827725,0.3756961 -4.094125,1.1278295 L 34.312498,19.013345 c -2.532058,1.503525 -4.092643,4.282343 -4.092643,7.289395 v 25.192392 c 0,3.006311 1.560585,5.78587 4.093385,7.289396 l 21.220535,12.595084 c 1.267141,0.751393 2.679522,1.127089 4.093384,1.127089 1.413863,0 2.826243,-0.375696 4.092643,-1.127089 L 84.941079,58.784528 c 2.5328,-1.503526 4.093384,-4.283085 4.093384,-7.289396 V 26.30274 c 0,-3.007052 -1.560584,-5.78587 -4.093384,-7.289395"
           style="fill-rule:evenodd;stroke:none;stroke-width:0.741018" />
        <path
           fill="#47b353"
           id="Fill-6"
           d="m 79.378404,53.930785 -5.2842,3.162665 c -0.140052,0.08151 -0.243054,0.173398 -0.243795,0.34161 v 1.382739 c 0,0.168952 0.113376,0.239349 0.253428,0.157096 l 5.365712,-3.261221 c 0.140053,-0.08151 0.161542,-0.237866 0.162283,-0.406077 v -1.219716 c 0,-0.168211 -0.113375,-0.238608 -0.253428,-0.157096"
           style="fill-rule:evenodd;stroke:none;stroke-width:0.741018" />
        <path
           fill="#fefefe"
           id="Fill-8"
           d="m 68.126192,42.291836 c 0.171175,-0.0867 0.311969,0.02001 0.314192,0.243795 l 0.01778,1.828091 c 0.765472,-0.304558 1.430165,-0.38607 2.032613,-0.246759 0.130419,0.03483 0.188219,0.212673 0.134865,0.423863 l -0.402372,1.619865 c -0.03112,0.122268 -0.100038,0.246018 -0.183032,0.323084 -0.03483,0.03409 -0.0704,0.06076 -0.105966,0.07855 -0.05409,0.02742 -0.107447,0.03631 -0.158577,0.02594 -0.274918,-0.06225 -0.928496,-0.205262 -1.957029,0.315673 -1.078923,0.546131 -1.456101,1.483519 -1.448691,2.179335 0.0089,0.830681 0.434978,1.082627 1.90664,1.107822 1.960734,0.03261 2.807718,0.889222 2.828466,2.864035 0.02001,1.939244 -1.015195,4.021505 -2.59875,5.297538 l 0.03483,1.809567 c 0.0022,0.217859 -0.139311,0.467582 -0.310486,0.554281 l -1.071512,0.617268 c -0.171917,0.0867 -0.31271,-0.02001 -0.314933,-0.237867 L 66.8257,59.315992 c -0.918121,0.381624 -1.848099,0.47351 -2.442395,0.234903 -0.111894,-0.04372 -0.16006,-0.208968 -0.115599,-0.397186 l 0.388293,-1.636168 c 0.03112,-0.128937 0.0993,-0.257874 0.191924,-0.340127 0.03261,-0.03186 0.06669,-0.05632 0.100779,-0.07336 0.0615,-0.03112 0.121527,-0.03779 0.172657,-0.01853 0.640239,0.215637 1.459065,0.114858 2.246767,-0.28381 1.000374,-0.506115 1.669514,-1.526497 1.659139,-2.54021 -0.0096,-0.919603 -0.507597,-1.301969 -1.718421,-1.310861 -1.541317,0.0044 -2.978151,-0.299371 -3.001864,-2.568369 -0.01927,-1.868106 0.952208,-3.811797 2.489821,-5.041146 l -0.01927,-1.826609 c -0.0022,-0.224529 0.134866,-0.471288 0.311228,-0.56021 z"
           style="fill-rule:evenodd;stroke:none;stroke-width:0.741018" />
        <path
           fill="#3e474a"
           id="Fill-14"
           d="m 158.09766,43.108357 c -0.54768,-0.702358 -1.19402,-1.336988 -1.92397,-1.888841 -0.70152,-0.531786 -1.46658,-1.013403 -2.27346,-1.434817 -0.79183,-0.413054 -1.6288,-0.7843 -2.48835,-1.105378 -0.82611,-0.306028 -1.66309,-0.586971 -2.49923,-0.837813 -0.70904,-0.206527 -1.46826,-0.449007 -2.25674,-0.719917 -0.73163,-0.250006 -1.41893,-0.566903 -2.04352,-0.94233 -0.56524,-0.339474 -1.03515,-0.756708 -1.39804,-1.240833 -0.31439,-0.419742 -0.47325,-0.940657 -0.48328,-1.573616 0,-0.627942 0.12291,-1.152201 0.3771,-1.60539 0.26589,-0.472419 0.61205,-0.859553 1.05854,-1.181467 0.4624,-0.334456 1.00255,-0.590314 1.60456,-0.760051 1.40806,-0.398839 2.98754,-0.339473 4.12887,0.08445 0.6179,0.229103 1.15637,0.553525 1.59786,0.961562 0.44817,0.414726 0.8144,0.922263 1.08949,1.50756 0.2893,0.616237 0.4883,1.318594 0.59115,2.086172 0.0761,0.574428 0.59116,1.005876 1.20153,1.005876 h 4.20495 c 0.3261,0 0.63798,-0.123748 0.86541,-0.345326 0.22826,-0.220741 0.35285,-0.520079 0.34617,-0.829451 -0.0334,-1.570272 -0.39718,-3.02014 -1.08197,-4.307795 -0.67728,-1.270098 -1.59118,-2.368787 -2.71495,-3.265965 -1.10873,-0.883801 -2.39554,-1.577797 -3.8245,-2.065268 -2.71162,-0.922263 -5.72507,-0.971595 -8.60389,-0.119568 -1.38466,0.410545 -2.64221,1.021764 -3.73755,1.814425 -1.11708,0.807712 -2.0335,1.812753 -2.72415,2.984185 -0.71239,1.207388 -1.07361,2.586183 -1.07361,4.099597 0,1.523448 0.36707,2.879669 1.09033,4.03187 0.68648,1.092835 1.58282,2.053561 2.66395,2.853747 1.04099,0.771758 2.20741,1.4298 3.46581,1.956569 1.20822,0.505865 2.41225,0.944002 3.58119,1.304379 0.76757,0.234955 1.56776,0.495832 2.40055,0.785136 0.75671,0.263385 1.45907,0.595332 2.08617,0.986645 0.57527,0.358705 1.0318,0.785972 1.39302,1.30438 0.31856,0.458205 0.47325,1.027617 0.47325,1.742516 0,0.635467 -0.13211,1.15471 -0.40386,1.586996 -0.29683,0.472419 -0.66807,0.852026 -1.1338,1.160562 -0.48497,0.319406 -1.04936,0.560214 -1.68149,0.714064 -1.51508,0.371246 -3.16311,0.312717 -4.46247,-0.08613 -0.69651,-0.213216 -1.31693,-0.531785 -1.8437,-0.947347 -0.5251,-0.41389 -0.96156,-0.928952 -1.29852,-1.529301 -0.34282,-0.610382 -0.5736,-1.332808 -0.68647,-2.144701 -0.0794,-0.572756 -0.59367,-1.000859 -1.20071,-1.000859 h -4.1832 c -0.32777,0 -0.64132,0.12542 -0.86875,0.34867 -0.22826,0.22325 -0.35202,0.525097 -0.34281,0.83614 0.0502,1.641344 0.46739,3.134691 1.24083,4.438234 0.75503,1.273442 1.75171,2.366278 2.9616,3.250078 1.18816,0.869587 2.5519,1.544351 4.05194,2.005065 1.48583,0.455697 3.02599,0.686471 4.57787,0.686471 1.38799,0 2.79438,-0.188131 4.17903,-0.558541 1.40974,-0.3771 2.69571,-0.950693 3.82116,-1.703219 1.15388,-0.771758 2.10791,-1.750042 2.83451,-2.909769 0.75253,-1.199861 1.13381,-2.61043 1.13381,-4.189064 0,-1.034305 -0.16053,-2.000883 -0.4766,-2.871306 -0.31272,-0.858715 -0.75335,-1.656394 -1.31106,-2.371294"
           style="fill-rule:evenodd;stroke:none;stroke-width:0.83614" />
        <path
           fill="#3e474a"
           id="Fill-16"
           d="m 184.94772,24.341268 h -3.87384 c -0.66891,0 -1.21158,0.515062 -1.21158,1.151365 V 37.517169 H 169.07107 V 25.492633 c 0,-0.636303 -0.54181,-1.151365 -1.21072,-1.151365 h -3.8521 c -0.66891,0 -1.21157,0.515062 -1.21157,1.151365 v 30.646221 c 0,0.636303 0.54266,1.151365 1.21157,1.151365 h 3.8521 c 0.66891,0 1.21072,-0.515062 1.21072,-1.151365 V 43.125163 h 10.79123 v 13.013691 c 0,0.636303 0.54267,1.151365 1.21158,1.151365 h 3.87384 c 0.66891,0 1.21156,-0.515062 1.21156,-1.151365 V 25.492633 c 0,-0.636303 -0.54265,-1.151365 -1.21156,-1.151365"
           style="fill-rule:evenodd;stroke:none;stroke-width:0.83614" />
        <g
           style="font-style:normal;font-weight:normal;font-size:75.2649px;line-height:1.25;font-family:sans-serif;fill:#3e474a;fill-opacity:1;stroke:none;stroke-width:1.88162"
           id="text1173"
           aria-label="*">
          <path
             id="path1175"
             style="fill:#3e474a;fill-opacity:1;stroke-width:1.88162"
             d="m 133.3937,48.553781 -2.35203,4.042548 -13.30366,-7.827844 0.22051,13.230159 h -4.74081 l 0.18375,-13.230159 -13.26691,7.864594 -2.388775,-4.042548 14.001915,-7.607341 -14.001915,-7.607341 2.388775,-4.042548 13.30366,7.827843 -0.2205,-13.193407 h 4.74081 l -0.25726,13.193407 13.34041,-7.791093 2.35203,4.042549 -13.96517,7.53384 z" />
        </g>
      </g>
    </g>
  </g>
</svg>
